#N canvas 105 119 713 411 12;
#X obj 140 24 inlet;
#X obj 123 291 outlet;
#X obj 121 197 /;
#X msg 45 138 60000;
#X obj 108 78 t b f;
#X floatatom 222 27 5 0 0 0 - - -;
#X obj 134 257 / 4;
#X connect 0 0 4 0;
#X connect 2 0 6 0;
#X connect 3 0 2 0;
#X connect 4 0 3 0;
#X connect 4 1 2 1;
#X connect 5 0 4 0;
#X connect 6 0 1 0;
