#N canvas 162 139 1008 684 12;
#X obj 149 242 +~;
#X obj 398 201 *~ 0.7;
#X obj 148 87 inlet~;
#X text 145 63 input signal;
#X obj 268 88 inlet;
#X text 266 64 delay time;
#X obj 441 85 inlet;
#X text 440 64 feedback;
#X obj 148 378 outlet~;
#X obj 268 132 delread~ \$1 500;
#X obj 262 331 delwrite~ \$1 3000;
#X connect 0 0 8 0;
#X connect 0 0 10 0;
#X connect 1 0 0 1;
#X connect 2 0 0 0;
#X connect 4 0 9 0;
#X connect 6 0 1 1;
#X connect 9 0 1 0;
