#N canvas 2 101 1005 673 12;
#X text 83 79 Charles;
#X text 180 77 Caja;
#X text 243 78 Bombo;
#X obj 216 286 +~;
#X obj 252 439 outlet~;
#X obj 85 95 inlet;
#X obj 170 96 inlet;
#X obj 244 97 inlet;
#X obj 337 98 inlet;
#X text 332 80 Bombo2;
#X obj 225 323 +~;
#N canvas 60 48 1005 673 charles 1;
#X obj 38 164 noise~;
#X obj 93 214 *~;
#X obj 106 186 tabread env2;
#X obj 92 242 bp~ 10000 40;
#X obj 100 163 line;
#X msg 100 116 0 \, 99 150;
#X text 94 18 Charles;
#X obj 100 35 inlet;
#X msg 99 81 bang;
#X obj 92 296 outlet~;
#X connect 0 0 1 0;
#X connect 1 0 3 0;
#X connect 2 0 1 1;
#X connect 3 0 9 0;
#X connect 4 0 2 0;
#X connect 5 0 4 0;
#X connect 7 0 8 0;
#X connect 8 0 5 0;
#X restore 85 176 pd charles;
#N canvas 456 271 445 302 caja 0;
#X obj 70 100 noise~;
#X obj 107 132 *~;
#X obj 127 100 tabread env;
#X obj 120 248 +~;
#X obj 120 220 bp~ 500 5;
#X obj 195 220 bp~ 4000 5;
#X obj 90 61 line;
#X msg 90 8 0 \, 99 200;
#X msg 249 91 200;
#X msg 282 94 5;
#X msg 90 -28 bang;
#X obj 119 280 outlet~;
#X obj 89 -56 inlet;
#X connect 0 0 1 0;
#X connect 1 0 4 0;
#X connect 1 0 5 0;
#X connect 2 0 1 1;
#X connect 3 0 11 0;
#X connect 4 0 3 0;
#X connect 5 0 3 1;
#X connect 6 0 2 0;
#X connect 7 0 6 0;
#X connect 8 0 5 2;
#X connect 8 0 4 2;
#X connect 9 0 4 2;
#X connect 9 0 5 2;
#X connect 10 0 7 0;
#X connect 12 0 10 0;
#X restore 170 177 pd caja;
#N canvas 302 335 458 308 bombo_s 0;
#X obj 43 98 noise~;
#X obj 125 142 tabread env;
#X obj 44 164 *~;
#X obj 127 102 line;
#X obj 45 186 bp~ 100 10;
#X obj 62 218 *~ 10;
#X obj 63 259 clip~ -1 1;
#X text 141 173 Hardcore level;
#X msg 108 25 bang;
#X msg 114 64 0 \, 99 10;
#X obj 105 1 inlet;
#X obj 62 292 outlet~;
#X obj 152 195 inlet;
#X connect 0 0 2 0;
#X connect 1 0 2 1;
#X connect 2 0 4 0;
#X connect 3 0 1 0;
#X connect 4 0 5 0;
#X connect 5 0 6 0;
#X connect 6 0 11 0;
#X connect 8 0 9 0;
#X connect 9 0 3 0;
#X connect 10 0 8 0;
#X connect 12 0 5 1;
#X restore 244 177 pd bombo_s;
#N canvas 88 40 1007 675 bombo_hq 0;
#X obj 304 30 inlet;
#X obj 369 34 inlet;
#X obj 236 379 outlet~;
#X obj 199 25 inlet;
#X text 187 7 Bang Bombo;
#X text 304 8 Start;
#X text 368 14 End;
#X floatatom 296 196 5 0 0 0 - - -;
#X obj 212 182 metro 2;
#X obj 225 224 int;
#X floatatom 156 201 5 0 0 0 - - -;
#X msg 144 157 0;
#X obj 237 303 max~;
#X floatatom 364 211 5 0 0 0 - - -;
#X obj 294 223 -;
#X msg 192 82 bang;
#X obj 501 45 vsl 15 128 2 50 0 0 empty end End 0 -8 64 8 -233017 -1
-1 2381 1;
#X obj 446 45 vsl 15 128 10 400 0 0 empty start start 0 -8 64 8 -261681
-1 -1 6187 1;
#X obj 237 341 osc~;
#X obj 654 157 loadbang;
#X msg 678 200 \; start 200 \; end 11;
#X connect 0 0 7 0;
#X connect 1 0 13 0;
#X connect 3 0 15 0;
#X connect 7 0 9 0;
#X connect 8 0 9 0;
#X connect 9 0 12 1;
#X connect 9 0 14 0;
#X connect 10 0 12 0;
#X connect 11 0 10 0;
#X connect 12 0 18 0;
#X connect 13 0 14 1;
#X connect 14 0 9 1;
#X connect 15 0 11 0;
#X connect 15 0 8 0;
#X connect 15 0 7 0;
#X connect 16 0 13 0;
#X connect 17 0 7 0;
#X connect 18 0 2 0;
#X connect 19 0 20 0;
#X restore 343 171 pd bombo_hq;
#X obj 226 359 *~ 0.5;
#X obj 252 399 +~;
#X obj 382 97 inlet;
#X obj 429 98 inlet;
#X text 386 79 Freq;
#X text 430 80 Duration;
#N canvas 0 0 1006 684 drum_envelopes 0;
#N canvas 0 0 450 300 graph1 0;
#X array env 100 float 1;
#A 0 0.914291 0.914291 0.914291 0.914291 0.914291 0.914291 0.878576
0.835719 0.728575 0.37143 0.314287 0.278572 0.242858 0.228572 0.214286
0.200001 0.178572 0.164286 0.142858 0.121429 0.1 0.0857144 0.0714286
0.0571429 0.05 0.0428571 0.0357142 0.0357142 0.0285713 0.0285713 0.0214284
0.0214284 0.0142855 0.0142855 0.0142855 0.00714262 0.00714262 0.00714262
0.00714262 0.00714262 -2.6729e-007 -2.6729e-007 -2.6729e-007 0 0 0
0 0 0 0 0 0 0 0 0 0 0 0 0 0 0 0 0 0 0 0 0 0 0 0 0 0 0 0 0 0 0 0 0 0
0 0 0 0 0 0 0 0 0 0 0 0 0 0 0 0 0 0 0 0;
#X coords 0 1 99 0 200 140 1;
#X restore 42 24 graph;
#N canvas 0 0 450 300 graph1 0;
#X array env2 100 float 1;
#A 0 0.0571424 0.157142 0.335712 0.492853 0.849993 0.949992 0.964278
0.964278 0.949992 0.935707 0.928564 0.89285 0.799994 0.728566 0.664281
0.549996 0.492853 0.428568 0.385711 0.342855 0.307141 0.249998 0.199998
0.157142 0.128571 0.107142 0.0857137 0.0571425 0.0428569 0.0285712
0.0214284 0.0142856 0 0 0 0 0 0 0 0 0 0 0 0 0 0 0 0 0 0 0 0 0 0 0 0
0 0 0 0 0 0 0 0 0 0 0 0 0 0 0 0 0 0 0 0 0 0 0 0 0 0 0 0 0 0 0 0 0 0
0 0 0 0 0 0 0 0 0 0;
#X coords 0 1 99 0 200 140 1;
#X restore 279 28 graph;
#X restore 378 440 pd drum_envelopes;
#X text 250 6 PERCUSION SET;
#X obj 313 312 *~ 0.5;
#X text 376 418 Envelopes de la bateria;
#X text 599 103 Este patch tiene subpatches dedicados a la sintesis
de la bateria. Solo necesita recibir Bang para sonar.;
#X connect 3 0 10 0;
#X connect 5 0 11 0;
#X connect 6 0 12 0;
#X connect 7 0 13 0;
#X connect 8 0 14 0;
#X connect 10 0 15 0;
#X connect 11 0 3 0;
#X connect 12 0 3 0;
#X connect 13 0 10 1;
#X connect 14 0 23 0;
#X connect 15 0 16 0;
#X connect 16 0 4 0;
#X connect 17 0 14 1;
#X connect 18 0 14 2;
#X connect 23 0 16 1;
