#N canvas 6 12 1007 675 12;
#X text 103 88 Tempo Global;
#X msg 369 17 \; sequence const 0;
#N canvas 0 0 450 300 graph1 0;
#X array sequence 16 float 1;
#A 0 0 0 0 96 0 0 0 96 0 0 96 0 0 0 0 0;
#X coords 0 127 15 0 200 140 1;
#X restore 365 126 graph;
#X text 392 55 poner todas las semicorcheas en silencio;
#N canvas 0 0 1011 708 loop-play 0;
#X floatatom 342 320 0 0 0 0 - midi_velocity -;
#X floatatom 383 320 0 0 0 0 - - -;
#X obj 313 389 makenote;
#X obj 383 288 * 0.9;
#X obj 313 497 outlet;
#X obj 372 495 outlet;
#X obj 428 76 metro 250;
#X obj 621 96 + 1;
#X obj 563 96 f;
#X obj 621 142 % 16;
#X floatatom 563 140 5 0 0 0 - - -;
#X obj 280 177 sel 0;
#X obj 280 324 t b;
#X msg 280 351 0;
#X obj 495 40 inlet;
#X text 594 71 beat actual;
#X text 190 47 REPRODUCCION DEL LOOP;
#X obj 412 157 tabread sequence;
#X obj 428 39 inlet;
#X text 407 19 start/stop;
#X text 498 19 tempo;
#X text 407 343 si es silencio enviamos un fin de nota MIDI;
#X connect 0 0 2 1;
#X connect 1 0 2 2;
#X connect 2 0 4 0;
#X connect 2 1 5 0;
#X connect 3 0 1 0;
#X connect 6 0 8 0;
#X connect 7 0 9 0;
#X connect 8 0 10 0;
#X connect 9 0 8 1;
#X connect 10 0 7 0;
#X connect 10 0 17 0;
#X connect 11 0 12 0;
#X connect 11 1 2 0;
#X connect 12 0 13 0;
#X connect 13 0 5 0;
#X connect 14 0 6 1;
#X connect 14 0 3 0;
#X connect 17 0 11 0;
#X connect 18 0 6 0;
#X restore 23 148 pd loop-play;
#X obj 114 106 inlet;
#X obj 25 21 inlet;
#X text 23 4 start;
#N canvas 3 0 1013 685 loop-generate 1;
#X obj 240 -68 loadbang;
#X obj 446 7 inlet;
#X floatatom 446 46 5 0 0 0 - - -;
#X text 441 -16 Climax;
#N canvas 18 0 1010 688 movimiento-octava 1;
#X obj 160 573 * 12;
#X obj 203 316 t f b;
#X obj 183 391 +;
#X msg 151 334 3;
#X text 140 166 movimiento de octava;
#X obj 202 72 inlet;
#X obj 160 604 outlet;
#X text 398 62 Climax;
#X text 218 602 Mutiplo de DO;
#X obj 400 83 inlet;
#X text 205 53 bang;
#X obj 87 298 loadbang;
#X msg 202 288 -1;
#X msg 247 287 1;
#X obj 202 260 t b;
#X obj 247 259 t b;
#X obj 202 153 bng 15 250 50 0 empty empty empty 0 -6 0 8 -262144 -1
-1;
#X obj 55 453 f;
#X obj 292 108 timer;
#X obj 292 75 loadbang;
#X msg 292 136 seed \$1;
#X obj 210 424 > 1;
#X obj 183 451 *;
#X obj 183 487 sel 0;
#X msg 148 518 1;
#X text 331 451 no dejamos bajar de 1 ni superar 7;
#X obj 245 487 sel 0;
#X msg 205 519 7;
#X obj 244 455 *;
#X obj 255 425 < 8;
#X obj 204 192 random 3;
#X obj 204 221 sel 0 1;
#X connect 0 0 6 0;
#X connect 1 0 2 1;
#X connect 1 1 17 0;
#X connect 2 0 21 0;
#X connect 2 0 22 0;
#X connect 2 0 28 0;
#X connect 2 0 29 0;
#X connect 3 0 2 0;
#X connect 5 0 16 0;
#X connect 11 0 3 0;
#X connect 12 0 1 0;
#X connect 13 0 1 0;
#X connect 14 0 12 0;
#X connect 15 0 13 0;
#X connect 16 0 30 0;
#X connect 17 0 2 0;
#X connect 18 0 20 0;
#X connect 19 0 18 0;
#X connect 20 0 30 0;
#X connect 21 0 22 1;
#X connect 22 0 23 0;
#X connect 23 0 24 0;
#X connect 24 0 0 0;
#X connect 24 0 17 1;
#X connect 26 0 27 0;
#X connect 26 1 0 0;
#X connect 26 1 17 1;
#X connect 27 0 0 0;
#X connect 27 0 17 1;
#X connect 28 0 26 0;
#X connect 29 0 28 1;
#X connect 30 0 31 0;
#X connect 31 0 14 0;
#X connect 31 1 15 0;
#X restore 252 280 pd movimiento-octava;
#X msg 51 66 stop;
#X obj 51 178 sel 0;
#X obj 51 212 t b;
#X text 15 44 cuenta de 0 a 15 1 vez;
#X obj 36 555 tabwrite sequence;
#N canvas 0 0 1013 702 chord-gen 0;
#X obj 30 251 t b;
#X obj 121 252 t b;
#X obj 203 249 t b;
#X obj 76 252 t b;
#X obj 242 248 t b;
#X obj 30 251 t b;
#X obj 159 249 t b;
#X obj 294 248 t b;
#X msg 75 277 2;
#X msg 31 276 0;
#X msg 120 276 4;
#X msg 161 277 5;
#X msg 202 274 7;
#X msg 241 276 9;
#X msg 296 276 11;
#X obj 155 460 +;
#X obj 351 252 t b;
#X msg 351 281 12;
#X obj 74 182 sel 0 1 2 3 4 5 6 7 8 9 10 11 12 13;
#X obj 294 248 t b;
#X msg 296 276 11;
#X obj 294 248 t b;
#X msg 296 276 11;
#X obj 120 310 -;
#X obj 241 306 -;
#X obj 296 304 -;
#X obj 72 61 bng 15 250 50 0 empty empty empty 0 -6 0 8 -262144 -1
-1;
#X obj 241 589 *;
#X obj 164 524 t f;
#X obj 273 517 t f b;
#X obj 72 149 random 40;
#X obj 180 16 vradio 15 1 0 2 empty empty empty 0 -6 0 8 -262144 -1
-1 0;
#X text 200 12 escala mayor escala menor;
#X obj 273 487 < 14;
#X text 315 467 solo las notas menor de 14 son notas \, las mayores
de 14 son silencios;
#X obj 459 199 random 100;
#X obj 342 411 *;
#X obj 459 296 <;
#X obj 426 11 loadbang;
#X msg 426 44 \; midi_velocity 100;
#X text 16 -27 GENERACION DEL LOOP;
#X obj 667 32 inlet;
#X text 664 10 Climax;
#X obj 72 21 inlet;
#X text 66 3 new note;
#X obj 459 100 timer;
#X msg 459 129 seed \$1;
#X obj 241 630 outlet;
#X connect 1 0 10 0;
#X connect 2 0 12 0;
#X connect 3 0 8 0;
#X connect 4 0 13 0;
#X connect 5 0 9 0;
#X connect 6 0 11 0;
#X connect 7 0 14 0;
#X connect 8 0 36 0;
#X connect 9 0 15 0;
#X connect 10 0 23 0;
#X connect 11 0 36 0;
#X connect 12 0 15 0;
#X connect 13 0 24 0;
#X connect 15 0 28 0;
#X connect 16 0 17 0;
#X connect 17 0 15 0;
#X connect 18 0 5 0;
#X connect 18 1 0 0;
#X connect 18 2 0 0;
#X connect 18 3 0 0;
#X connect 18 4 3 0;
#X connect 18 5 1 0;
#X connect 18 6 1 0;
#X connect 18 7 6 0;
#X connect 18 8 2 0;
#X connect 18 9 2 0;
#X connect 18 10 4 0;
#X connect 18 11 7 0;
#X connect 18 12 16 0;
#X connect 18 13 16 0;
#X connect 19 0 20 0;
#X connect 21 0 22 0;
#X connect 22 0 25 0;
#X connect 23 0 15 0;
#X connect 24 0 36 0;
#X connect 25 0 36 0;
#X connect 26 0 30 0;
#X connect 26 0 35 0;
#X connect 27 0 47 0;
#X connect 28 0 27 0;
#X connect 29 0 27 1;
#X connect 29 1 27 0;
#X connect 30 0 18 0;
#X connect 30 0 33 0;
#X connect 31 0 23 1;
#X connect 31 0 24 1;
#X connect 31 0 25 1;
#X connect 33 0 29 0;
#X connect 35 0 37 0;
#X connect 36 0 15 0;
#X connect 37 0 36 1;
#X connect 38 0 39 0;
#X connect 38 0 45 0;
#X connect 41 0 37 1;
#X connect 43 0 26 0;
#X connect 45 0 46 0;
#X connect 46 0 35 0;
#X connect 46 0 30 0;
#X restore 456 172 pd chord-gen;
#X obj 169 124 + 1;
#X obj 109 104 f;
#X obj 169 160 % 16;
#X floatatom 128 162 3 0 0 0 - - -;
#X obj 267 46 bng 15 250 50 0 empty empty empty 0 -6 0 8 -262144 -1
-1;
#X obj 400 399 +;
#X obj 455 344 sel 0;
#X obj 291 116 t b b;
#X obj 302 164 + 1;
#X obj 242 144 f;
#X floatatom 261 193 3 0 0 0 - - -;
#X obj 302 191 % 5;
#X obj 261 219 sel 0;
#X msg 252 248 bang;
#X obj 400 448 t f;
#X obj 291 87 metro 100;
#X obj 188 -7 inlet;
#X obj 242 -37 bng 15 250 50 0 empty empty empty 0 -6 0 8 -262144 -1
-1;
#X obj 265 16 metro 3000;
#X connect 0 0 28 0;
#X connect 1 0 2 0;
#X connect 2 0 10 1;
#X connect 2 0 4 1;
#X connect 4 0 16 1;
#X connect 5 0 26 0;
#X connect 6 0 7 0;
#X connect 7 0 5 0;
#X connect 10 0 17 0;
#X connect 11 0 13 0;
#X connect 12 0 11 0;
#X connect 13 0 14 0;
#X connect 14 0 12 1;
#X connect 14 0 6 0;
#X connect 14 0 9 1;
#X connect 15 0 20 0;
#X connect 15 0 26 0;
#X connect 16 0 25 0;
#X connect 17 0 25 0;
#X connect 17 1 16 0;
#X connect 18 1 10 0;
#X connect 19 0 22 0;
#X connect 20 0 19 0;
#X connect 21 0 20 1;
#X connect 21 0 23 0;
#X connect 22 0 21 0;
#X connect 23 0 24 0;
#X connect 24 0 4 0;
#X connect 25 0 9 0;
#X connect 26 0 12 0;
#X connect 26 0 18 0;
#X connect 27 0 29 0;
#X connect 28 0 29 0;
#X connect 29 0 15 0;
#X restore 108 63 pd loop-generate;
#X obj 23 183 outlet;
#X obj 114 183 outlet;
#X obj 247 24 inlet;
#X text 373 101 array de 16 semicorcheas;
#X text 110 201 velocity;
#X text 25 203 pitch;
#X text 242 6 Climax;
#X text -29 -14 START playing loop;
#X obj 25 48 bng 15 250 50 0 empty empty empty 0 -6 0 8 -262144 -1
-1;
#X obj 247 182 outlet;
#X text 244 204 climax;
#X connect 4 0 9 0;
#X connect 4 1 10 0;
#X connect 5 0 4 1;
#X connect 6 0 17 0;
#X connect 11 0 8 1;
#X connect 11 0 18 0;
#X connect 17 0 4 0;
#X connect 17 0 8 0;
