#N canvas 0 7 1005 673 12;
#N canvas 0 0 450 300 graph1 0;
#X array bombo 16 float 1;
#A 0 0 0 0 1 0 0 0 1 0 0 0 1 0 0 0 1;
#X coords 0 1 15 0 200 140 1;
#X restore 748 179 graph;
#N canvas 0 0 450 300 graph2 0;
#X array caja 16 float 1;
#A 0 0 0 0 0 0 0 0 0 0 0 0 0 0 0 0 0;
#X coords 0 1 15 0 200 140 1;
#X restore 747 -140 graph;
#N canvas 0 0 450 300 graph3 0;
#X array charles 16 float 1;
#A 0 0 0 1 0 0 0 0 0 0 1 0 0 0 0 0 0;
#X coords 0 1 15 0 200 140 1;
#X restore 748 20 graph;
#X text 74 -264 Climax;
#X msg 64 -93 stop;
#X obj 31 -92 bng 15 250 50 0 empty empty empty 0 -6 0 8 -262144 -1
-1;
#X obj 24 -244 inlet;
#X obj 80 -246 inlet;
#X text 21 -264 Tempo;
#X obj 532 -47 s st_t2;
#X obj 462 -48 s st_t1;
#X obj 395 26 r start1;
#X obj 561 25 r start2;
#X obj 637 24 r stop2;
#N canvas 286 221 1007 675 DrumSequencer 0;
#X msg 105 165 bang;
#X msg 161 162 bang;
#X msg 205 164 bang;
#X msg 272 164 bang;
#X obj 349 39 + 1;
#X obj 291 39 f;
#X floatatom 291 83 5 0 0 0 - - -;
#X obj 292 106 tabread bombo;
#X obj 182 103 tabread caja;
#X obj 42 105 tabread charles;
#X obj 291 2 metro 500;
#X obj 100 138 sel 1;
#X obj 182 132 sel 1;
#X obj 288 131 sel 1;
#X obj 349 85 % 16;
#X obj 291 -25 inlet;
#X obj 102 234 outlet;
#X obj 162 233 outlet;
#X obj 217 232 outlet;
#X obj 280 235 outlet;
#X obj 358 -23 inlet;
#X text 364 -42 Tempo;
#X text 249 -43 Start Metro;
#X connect 0 0 16 0;
#X connect 1 0 17 0;
#X connect 2 0 18 0;
#X connect 3 0 19 0;
#X connect 4 0 14 0;
#X connect 5 0 6 0;
#X connect 6 0 4 0;
#X connect 6 0 7 0;
#X connect 6 0 8 0;
#X connect 6 0 9 0;
#X connect 7 0 13 0;
#X connect 8 0 12 0;
#X connect 9 0 11 0;
#X connect 10 0 5 0;
#X connect 11 0 0 0;
#X connect 12 0 1 0;
#X connect 13 0 3 0;
#X connect 14 0 5 1;
#X connect 15 0 10 0;
#X connect 20 0 10 1;
#X restore 40 -31 pd DrumSequencer;
#X obj 24 -191 s tmpo;
#X obj 163 -65 r tmpo;
#X obj 83 -194 s climx;
#X text 25 -150 SEQUENCER + PLAYER;
#N canvas 0 0 1009 692 cambiar_charles 0;
#X msg 657 317 \; charles read rhytm/bcc-charles.txt;
#X msg 602 397 \; charles read rhytm/tecnico-charles.txt;
#X msg 715 280 \; charles read rhytm/tren-charles.txt;
#X msg 221 264 \; charles read rhytm/sencillo-charles.txt;
#X msg 718 236 \; charles read rhytm/makina-charles.txt;
#X msg 58 341 \; charles read rhytm/bombocaja-charles.txt;
#X msg 624 356 \; charles read rhytm/makina2-charles.txt;
#X msg 381 16 seed \$1;
#X obj 284 142 sel 0 1;
#X obj 286 101 random 3;
#X obj 486 138 sel 0 1 2 3;
#X obj 399 100 random 5;
#X msg 131 301 \; charles read rhytm/climax_charles.txt;
#X obj 247 -13 inlet;
#X obj 463 -14 inlet;
#X obj 380 -8 timer;
#X obj 380 -39 loadbang;
#X text 532 44 Este Modulo carga desde ficheros con 1 y 0 que contienen
los disparadores del charles. Esto se graba en la tabla 'bombo' y se
dispara automaticamente a la velocidad del tempo.;
#X text 213 -35 Start/Stop Cl Bajo;
#X text 453 -36 Start/Stop Cl Alto;
#X obj 246 15 metro 7000;
#X obj 466 14 metro 7000;
#X connect 7 0 9 0;
#X connect 7 0 11 0;
#X connect 8 0 5 0;
#X connect 8 1 12 0;
#X connect 8 2 3 0;
#X connect 9 0 8 0;
#X connect 10 0 1 0;
#X connect 10 1 6 0;
#X connect 10 2 0 0;
#X connect 10 3 2 0;
#X connect 10 4 4 0;
#X connect 11 0 10 0;
#X connect 13 0 20 0;
#X connect 14 0 21 0;
#X connect 15 0 7 0;
#X connect 16 0 15 0;
#X connect 20 0 9 0;
#X connect 21 0 11 0;
#X restore 426 193 pd cambiar_charles;
#X obj 364 134 r start1;
#X obj 530 133 r start2;
#X obj 606 132 r stop2;
#X obj 445 133 r stop1;
#X obj 476 25 r stop1;
#X text 448 -6 Selector de CAJA;
#X text 443 113 Selector de CHARLES;
#X obj 362 261 r start1;
#X obj 528 260 r start2;
#X obj 604 259 r stop2;
#X obj 443 260 r stop1;
#X text 430 239 Selector de BOMBO;
#X obj 32 -124 loadbang;
#N canvas 0 0 1009 679 climax_drum 0;
#X obj 93 -126 t b;
#X obj 98 -152 sel 1;
#X obj 191 -161 sel 1;
#X obj 195 -137 t b;
#X msg 90 -86 stop;
#X obj 53 -95 bng 15 250 50 0 empty empty empty 0 -6 0 8 -262144 -1
-1;
#X obj 111 -182 < 60;
#X obj 194 -187 >= 60;
#X obj 128 -234 r climx;
#X text 465 -163 Esta parte permite poner en marcha unos patrones u
otros de bateria segun el Climax Seleccionado.;
#X obj 134 345 outlet;
#X obj 264 333 outlet;
#X floatatom 46 18 5 0 0 0 - - -;
#X msg 56 -9 0;
#X msg 22 -6 1;
#X msg 99 -11 0;
#X msg 137 -12 1;
#X msg 276 -88 stop;
#X obj 214 -39 bng 15 250 50 0 empty empty empty 0 -6 0 8 -262144 -1
-1;
#X floatatom 234 110 5 0 0 0 - - -;
#X msg 244 83 0;
#X msg 210 86 1;
#X msg 287 81 0;
#X msg 327 79 1;
#X msg 245 276 11;
#X msg 293 278 8;
#X text 135 367 Start;
#X text 265 354 Stop;
#X obj -11 -171 loadbang;
#X floatatom 321 113 5 0 0 0 - - -;
#X floatatom 111 24 5 0 0 0 - - -;
#X obj 84 53 sel \$1;
#X obj 271 147 sel \$1;
#X obj 89 191 delay;
#X obj 240 214 delay;
#X msg 58 284 200;
#X obj 292 -179 loadbang;
#X obj 371 8 bng 15 250 50 0 empty empty empty 0 -6 0 8 -262144 -1
-1;
#X obj 146 -34 bng 15 250 50 0 empty empty empty 0 -6 0 8 -262144 -1
-1;
#X msg 264 177 384;
#X msg 57 101 200;
#X obj 27 340 s start1;
#X obj 358 316 s start1;
#X obj 360 -68 s stop2;
#X obj 139 -66 s stop1;
#X obj 108 149 r stop1;
#X obj 184 149 r stop2;
#X msg 153 302 224;
#X connect 0 0 5 0;
#X connect 0 0 17 0;
#X connect 1 0 0 0;
#X connect 2 0 3 0;
#X connect 3 0 4 0;
#X connect 3 0 18 0;
#X connect 4 0 13 0;
#X connect 4 0 16 0;
#X connect 4 0 38 0;
#X connect 4 0 44 0;
#X connect 5 0 14 0;
#X connect 5 0 15 0;
#X connect 6 0 1 0;
#X connect 7 0 2 0;
#X connect 8 0 6 0;
#X connect 8 0 7 0;
#X connect 12 0 31 0;
#X connect 13 0 12 0;
#X connect 14 0 12 0;
#X connect 15 0 30 0;
#X connect 16 0 30 0;
#X connect 17 0 20 0;
#X connect 17 0 23 0;
#X connect 17 0 37 0;
#X connect 17 0 43 0;
#X connect 18 0 21 0;
#X connect 18 0 22 0;
#X connect 19 0 32 0;
#X connect 20 0 19 0;
#X connect 21 0 19 0;
#X connect 22 0 29 0;
#X connect 23 0 29 0;
#X connect 24 0 11 0;
#X connect 24 0 42 0;
#X connect 25 0 11 0;
#X connect 28 0 5 0;
#X connect 29 0 32 1;
#X connect 30 0 31 1;
#X connect 31 0 40 0;
#X connect 32 0 39 0;
#X connect 33 0 35 0;
#X connect 33 0 24 0;
#X connect 34 0 47 0;
#X connect 34 0 25 0;
#X connect 35 0 10 0;
#X connect 35 0 41 0;
#X connect 36 0 17 0;
#X connect 39 0 34 0;
#X connect 40 0 33 0;
#X connect 45 0 33 0;
#X connect 46 0 34 0;
#X connect 47 0 10 0;
#X restore 458 -97 pd climax_drum;
#X text 453 -125 Climax Renderer;
#X text 422 -149 AUTOMATIC PATTERN SELECTION;
#X obj 171 -245 inlet;
#X text 168 -263 Start/Stop DRUM;
#X obj 173 -199 s StartStop_drum;
#X obj 112 -95 r StartStop_drum;
#X text 38 358 Este patch permite de forma modular ejecutar baterias
de forma pseudo-aleatoria \, de manera que podremos tener diferentes
ritmos \, y tiene el cuenta el nivel de climax en la cancion.;
#N canvas 0 0 1009 698 cambiar_bombo 0;
#X msg 159 320 \; bombo read rhytm/bombocaja-bombo.txt;
#X msg 35 446 \; bombo read rhytm/makina2-bombo.txt;
#X msg 75 409 \; bombo read rhytm/makina-bombo.txt;
#X msg 312 195 \; bombo read rhytm/tren-bombo.txt;
#X msg 174 77 seed \$1;
#X msg 213 275 \; bombo read rhytm/bcc-bombo.txt;
#X msg 119 372 \; bombo read rhytm/tecnico-bombo.txt;
#X msg 258 236 \; bombo read rhytm/climax_bombo.txt;
#X obj 135 160 sel 0 1;
#X obj 136 124 random 3;
#X obj 216 152 sel 0 1 2 3 4;
#X obj 216 117 random 6;
#X obj 175 47 timer;
#X obj 174 16 loadbang;
#X obj 62 -9 inlet;
#X text 24 -33 Start/Stop Cl Bajo;
#X obj 290 -10 inlet;
#X text 264 -34 Start/Stop Cl Alto;
#X obj 62 21 metro 10000;
#X obj 290 21 metro 10000;
#X text 393 49 Este Modulo carga desde ficheros con 1 y 0 que contienen
los disparadores del bombo. Esto se graba en la tabla 'bombo' y se
dispara automaticamente a la velocidad del tempo.;
#X connect 4 0 9 0;
#X connect 4 0 11 0;
#X connect 8 0 1 0;
#X connect 8 1 2 0;
#X connect 8 2 6 0;
#X connect 9 0 8 0;
#X connect 10 0 0 0;
#X connect 10 1 5 0;
#X connect 10 2 7 0;
#X connect 10 3 3 0;
#X connect 10 4 7 0;
#X connect 10 5 7 0;
#X connect 11 0 10 0;
#X connect 12 0 4 0;
#X connect 13 0 12 0;
#X connect 14 0 18 0;
#X connect 16 0 19 0;
#X connect 18 0 9 0;
#X connect 19 0 11 0;
#X restore 442 321 pd cambiar_bombo;
#N canvas 0 0 1009 704 cambiar_caja 0;
#X msg 418 324 \; caja read rhytm/bcc-caja.txt;
#X msg 457 284 \; caja read rhytm/tecnico-caja.txt;
#X msg 141 175 \; caja read rhytm/tren-caja.txt;
#X msg 537 203 \; caja read rhytm/sencillo-caja.txt;
#X msg 163 132 \; caja read rhytm/makina-caja.txt;
#X msg 572 162 \; caja read rhytm/bombocaja-caja.txt;
#X msg 491 248 \; caja read rhytm/makina2-caja.txt;
#X msg 82 5 seed \$1;
#X obj 256 55 random 2;
#X obj 462 134 sel 0 1 2 3;
#X obj 62 -87 timer;
#X obj 141 100 sel 0 1 2;
#X obj 142 56 random 4;
#X obj 62 -115 loadbang;
#X obj 164 -62 inlet;
#X obj 310 -66 inlet;
#X text 118 -91 Start/Stop Cl Bajo;
#X text 301 -91 Start/Stop Cl Alto;
#X obj 164 -13 metro 15000;
#X obj 310 -29 metro 15000;
#X connect 7 0 8 0;
#X connect 7 0 12 0;
#X connect 8 0 9 0;
#X connect 9 0 0 0;
#X connect 9 1 1 0;
#X connect 9 2 6 0;
#X connect 9 3 3 0;
#X connect 9 4 5 0;
#X connect 10 0 7 0;
#X connect 11 0 2 0;
#X connect 11 1 4 0;
#X connect 11 2 4 0;
#X connect 11 3 4 0;
#X connect 12 0 11 0;
#X connect 13 0 10 0;
#X connect 14 0 18 0;
#X connect 15 0 19 0;
#X connect 18 0 12 0;
#X connect 19 0 8 0;
#X restore 471 72 pd cambiar_caja;
#X obj 177 12 bng 15 250 50 0 empty empty empty 0 -6 0 8 -262144 -1
-1;
#X obj 129 10 bng 15 250 50 0 empty empty empty 0 -6 0 8 -262144 -1
-1;
#X obj 84 7 bng 15 250 50 0 empty empty empty 0 -6 0 8 -262144 -1 -1
;
#X obj 52 6 bng 15 250 50 0 empty empty empty 0 -6 0 8 -262144 -1 -1
;
#X obj 21 84 outlet;
#X obj 73 85 outlet;
#X obj 128 86 outlet;
#X obj 184 86 outlet;
#X connect 4 0 14 0;
#X connect 5 0 14 0;
#X connect 6 0 15 0;
#X connect 7 0 17 0;
#X connect 11 0 42 0;
#X connect 12 0 42 1;
#X connect 13 0 42 1;
#X connect 14 0 46 0;
#X connect 14 0 47 0;
#X connect 14 1 45 0;
#X connect 14 1 48 0;
#X connect 14 2 44 0;
#X connect 14 2 49 0;
#X connect 14 3 43 0;
#X connect 14 3 50 0;
#X connect 16 0 14 1;
#X connect 20 0 19 0;
#X connect 21 0 19 1;
#X connect 22 0 19 1;
#X connect 23 0 19 0;
#X connect 24 0 42 0;
#X connect 27 0 41 0;
#X connect 28 0 41 1;
#X connect 29 0 41 1;
#X connect 30 0 41 0;
#X connect 32 0 5 0;
#X connect 33 0 10 0;
#X connect 33 1 9 0;
#X connect 36 0 38 0;
#X connect 39 0 14 0;
