#N canvas 0 6 1005 673 12;
#X obj 176 394 *~;
#X floatatom 246 377 5 0 0 0 - Square -;
#X obj 180 427 clip~ -1 1;
#X msg 722 310 \; pd dsp 1;
#X obj 188 222 osc~ 440;
#X obj 173 511 vcf~;
#X floatatom 229 473 5 0 0 0 - four -;
#X obj 163 72 mtof;
#X obj 338 95 sel 0;
#X floatatom 163 97 5 0 0 0 - - -;
#X obj 174 546 *~;
#X floatatom 329 147 5 0 0 0 - - -;
#X floatatom 338 66 5 0 0 0 - - -;
#X floatatom 375 147 5 0 0 0 - - -;
#X floatatom 532 288 5 0 0 0 - one -;
#X floatatom 392 433 7 0 0 0 - three -;
#X obj 354 350 *~ 2000;
#X floatatom 313 465 5 0 0 0 - two -;
#X obj 370 462 +~;
#X text 474 488 Amplitude Envelop;
#X obj 328 303 adsr 2 5 200 0 0;
#X obj 468 518 adsr 2 5 30 50 10;
#X obj 110 221 phasor~;
#X obj 310 490 *~;
#X obj 804 273 loadbang;
#X obj 20 32 hradio 15 1 0 2 empty wave_type empty 0 -6 64 8 -262144
-1 -1 0;
#X obj 20 -12 inlet;
#X obj 175 590 outlet~;
#X obj 517 -9 inlet;
#X text 511 -28 Climax;
#X floatatom 517 30 5 0 0 0 - - -;
#X obj 163 -11 inlet;
#X obj 333 -9 inlet;
#X text 281 -48 Notas MIDI (sin canal);
#X obj 42 462 multiplex~ 0 1 2;
#X obj 19 80 + 1;
#X text 326 277 Filter Envelop;
#X msg 804 310 \; one 40.94 \; two 0.814 \; three 1259.84 \; four 7.125
\; wave_type 0 \; Square 1000 \;;
#X text 12 -35 Wave Type;
#X text 223 454 Resonance;
#X text 303 444 MOD ENV;
#X text 234 356 Square Wav;
#X text 62 154 Frequency to Oscillators;
#X text 160 -30 Pitch;
#X text 319 -27 Velocity;
#X text 393 410 Cutoff;
#X text 528 267 Decay;
#X text 594 122 303 Patch. Makes no use of send/receives for the possibility
of making more than one instance.;
#X text 593 174 Mediante un VCF mejora el sonido de un simple sonido
de onda cuadrada. Admite la entrada de nota midi \, separada en pitch
y velocity.;
#X obj 514 65 s one;
#X obj 166 30 - 10;
#X connect 0 0 2 0;
#X connect 1 0 0 1;
#X connect 2 0 34 2;
#X connect 4 0 0 0;
#X connect 5 0 10 0;
#X connect 6 0 5 2;
#X connect 7 0 9 0;
#X connect 8 0 11 0;
#X connect 8 1 13 0;
#X connect 9 0 22 0;
#X connect 9 0 4 0;
#X connect 10 0 27 0;
#X connect 11 0 20 0;
#X connect 11 0 21 0;
#X connect 12 0 8 0;
#X connect 13 0 20 0;
#X connect 13 0 21 0;
#X connect 14 0 21 3;
#X connect 14 0 20 3;
#X connect 15 0 18 1;
#X connect 16 0 18 0;
#X connect 17 0 23 0;
#X connect 18 0 23 1;
#X connect 20 0 16 0;
#X connect 21 0 10 1;
#X connect 22 0 34 1;
#X connect 23 0 5 1;
#X connect 24 0 3 0;
#X connect 24 0 37 0;
#X connect 25 0 35 0;
#X connect 26 0 25 0;
#X connect 28 0 30 0;
#X connect 30 0 49 0;
#X connect 31 0 50 0;
#X connect 32 0 12 0;
#X connect 34 0 5 0;
#X connect 35 0 34 0;
#X connect 50 0 7 0;
